<svg width="115" height="26" viewBox="0 0 115 26" fill="none" xmlns="http://www.w3.org/2000/svg">
<path d="M103.404 1.19995C106.566 1.2 108.986 1.74849 110.634 2.87378C112.314 4.0027 113.163 5.55757 113.163 7.52026C113.163 8.79647 112.731 9.93545 111.874 10.9304L111.873 10.9324C111.072 11.8365 110.123 12.5427 109.029 13.0554L114.384 24.5154C114.413 24.5773 114.409 24.6501 114.372 24.7078C114.336 24.7654 114.272 24.8005 114.203 24.8005H112.883C112.805 24.8005 112.735 24.7547 112.702 24.6843L107.102 12.6843C107.056 12.5863 107.097 12.4701 107.194 12.4216C107.25 12.3935 107.478 12.2856 107.873 12.1013L107.876 12.1003L107.879 12.0984L107.881 12.0974L107.884 12.0964L107.886 12.0955L107.889 12.0935L107.891 12.0925L107.894 12.0916L107.896 12.0896L107.899 12.0886L107.901 12.0876L107.904 12.0867L107.906 12.0847L107.908 12.0837L107.91 12.0828L107.913 12.0818L107.916 12.0798L107.918 12.0789L107.921 12.0779L107.923 12.0769L107.926 12.075L107.928 12.074L107.931 12.073L107.933 12.072L107.935 12.0701L107.938 12.0691L107.94 12.0681L107.943 12.0671L107.945 12.0652L107.948 12.0642L107.949 12.0632L107.952 12.0623L107.954 12.0613L107.957 12.0593L107.959 12.0583L107.962 12.0574L107.964 12.0564L107.966 12.0544L107.969 12.0535L107.971 12.0525L107.974 12.0515L107.976 12.0505L107.979 12.0486L107.983 12.0466L107.986 12.0457L107.988 12.0447L107.99 12.0427L107.992 12.0417L107.995 12.0408L107.997 12.0398L107.999 12.0378L108.002 12.0369L108.004 12.0359L108.007 12.0349L108.011 12.033L108.014 12.031L108.018 12.0291L108.021 12.0281L108.023 12.0271L108.026 12.0251L108.03 12.0232L108.032 12.0222L108.036 12.0203L108.039 12.0183L108.043 12.0164L108.046 12.0154L108.048 12.0144L108.05 12.0125L108.053 12.0115L108.057 12.0095L108.06 12.0085L108.064 12.0066L108.067 12.0046L108.073 12.0017L108.075 12.0007L108.077 11.9998L108.079 11.9978L108.082 11.9968L108.088 11.9939L108.091 11.9929L108.095 11.991L108.098 11.989L108.104 11.9861L108.107 11.9851L108.113 11.9822L108.115 11.9802L108.123 11.9763L108.126 11.9753L108.13 11.9734L108.132 11.9714L108.135 11.9705L108.143 11.9666L108.146 11.9656L108.152 11.9626L108.154 11.9607L108.156 11.9597L108.166 11.9548L108.169 11.9539L108.179 11.949L108.181 11.947L108.184 11.946L108.198 11.9392L108.2 11.9382L108.214 11.9314L108.216 11.9294L108.218 11.9285L108.221 11.9275L108.254 11.9109L108.257 11.9099L108.29 11.8933L108.291 11.8923L108.324 11.8757L108.325 11.8748H108.327L108.343 11.8669L108.344 11.866L108.356 11.8601L108.357 11.8591L108.359 11.8582H108.361L108.368 11.8542L108.369 11.8533L108.379 11.8484L108.38 11.8474H108.382L108.388 11.8445L108.389 11.8435L108.397 11.8396L108.398 11.8386H108.4L108.406 11.8357L108.406 11.8347L108.412 11.8318L108.413 11.8308H108.415L108.419 11.8289L108.42 11.8279L108.426 11.825L108.427 11.824H108.429L108.433 11.822L108.434 11.821L108.438 11.8191L108.439 11.8181H108.441L108.445 11.8162L108.446 11.8152L108.449 11.8132L108.45 11.8123H108.452L108.454 11.8113L108.455 11.8103L108.459 11.8083L108.46 11.8074H108.462L108.464 11.8064L108.465 11.8054L108.469 11.8035L108.47 11.8025H108.472L108.474 11.8015L108.475 11.8005L108.479 11.7986H108.48L108.484 11.7966L108.485 11.7957L108.487 11.7947L108.488 11.7937H108.49L108.491 11.7927L108.492 11.7917L108.496 11.7898H108.497L108.499 11.7888L108.5 11.7878L108.502 11.7869L108.503 11.7859H108.505L108.507 11.7849L108.508 11.7839L108.51 11.783L108.511 11.782H108.513L108.515 11.781L108.516 11.78L108.518 11.7791H108.519L108.521 11.7781L108.522 11.7771L108.524 11.7761L108.525 11.7751H108.527L108.528 11.7742L108.531 11.7722H108.532L108.534 11.7712L108.535 11.7703L108.537 11.7693H108.538L108.54 11.7683L108.541 11.7673L108.543 11.7664H108.544L108.546 11.7654L108.547 11.7644L108.549 11.7634H108.55L108.552 11.7625L108.553 11.7615L108.555 11.7605H108.556L108.558 11.7595L108.559 11.7585L108.561 11.7576H108.562L108.564 11.7566L108.566 11.7546H108.568L108.569 11.7537L108.571 11.7527H108.572L108.573 11.7517L108.574 11.7507L108.576 11.7498H108.577L108.578 11.7488L108.58 11.7478H108.581L108.583 11.7468L108.584 11.7458L108.586 11.7449H108.587L108.588 11.7439L108.59 11.7429H108.591L108.593 11.7419L108.594 11.741H108.595L108.597 11.74L108.599 11.738H108.601L108.602 11.7371L108.604 11.7361H108.605L108.606 11.7351L108.608 11.7341H108.609L108.61 11.7332L108.612 11.7322H108.613L108.615 11.7312L108.615 11.7302H108.616L108.618 11.7292L108.619 11.7283H108.62L108.622 11.7273L108.623 11.7263H108.624L108.626 11.7253L108.627 11.7244H108.628L108.629 11.7234L108.631 11.7224H108.632L108.633 11.7214L108.635 11.7205H108.636L108.637 11.7195L108.639 11.7185H108.64L108.642 11.7166H108.644L108.645 11.7156H108.646L108.647 11.7146L108.649 11.7136H108.65L108.651 11.7126L108.653 11.7117H108.654L108.655 11.7107H108.656L108.657 11.7097L108.658 11.7087H108.659L108.661 11.7068H108.663L108.664 11.7058H108.665L108.666 11.7048L108.668 11.7039H108.669L108.67 11.7029H108.671L108.672 11.7019L108.674 11.7009H108.675L108.676 11.7H108.677L108.678 11.699L108.68 11.698H108.681L108.682 11.697H108.683L108.685 11.6951H108.687L108.688 11.6941H108.689L108.69 11.6931H108.691L108.693 11.6912H108.695L108.696 11.6902H108.697L108.698 11.6892H108.698L108.7 11.6873H108.702L108.703 11.6863H108.704L108.705 11.6853H108.706L108.707 11.6843H108.708L108.71 11.6824H108.711L108.713 11.6814H108.714L108.715 11.6804H108.716L108.717 11.6794H108.718L108.719 11.6785H108.72L108.721 11.6775H108.722L108.724 11.6755H108.725L108.726 11.6746H108.728L108.729 11.6736H108.73L108.731 11.6726H108.732L108.733 11.6716H108.734L108.735 11.6707H108.736L108.737 11.6697H108.738L108.739 11.6687H108.74L108.74 11.6677H108.741L108.742 11.6667H108.743L108.744 11.6658C108.907 11.5576 109.171 11.3862 109.535 11.1521C109.901 10.9173 110.163 10.7021 110.332 10.5085C110.515 10.2728 110.711 10.0107 110.921 9.72241L110.923 9.72046C111.149 9.41939 111.311 9.09402 111.41 8.74487C111.512 8.36426 111.563 7.95641 111.563 7.52026C111.563 6.71325 111.372 6.0216 110.995 5.43823C110.619 4.85421 110.048 4.3666 109.274 3.97925C107.709 3.19695 105.755 2.80058 103.404 2.80054H100.404V24.6003C100.403 24.7106 100.314 24.8004 100.203 24.8005H99.0032C98.8928 24.8005 98.8031 24.7107 98.803 24.6003V1.40015C98.803 1.28969 98.8927 1.19995 99.0032 1.19995H103.404Z" fill="#456FB1" stroke="#456FB1" stroke-width="0.4" stroke-linejoin="round"/>
<path d="M85.4094 0.799805C89.3205 0.799873 92.0306 2.08521 93.4641 4.7041C93.5099 4.78783 93.4904 4.89187 93.4172 4.95312L83.6174 13.1533C83.5815 13.1834 83.5363 13.2001 83.4895 13.2002H81.6086C81.5247 13.2 81.4498 13.1472 81.4211 13.0684C81.3925 12.9893 81.4163 12.9006 81.4807 12.8467L91.4485 4.53223C90.3082 3.13059 88.3195 2.40044 85.4094 2.40039C84.0893 2.40039 82.9912 2.54518 82.1106 2.83008L82.1057 2.83203C81.2359 3.08787 80.4236 3.58838 79.6702 4.3418C78.9578 5.05432 78.4112 6.12354 78.0432 7.56934L78.0422 7.57031C77.6747 8.98802 77.4895 10.7963 77.4895 13C77.4895 15.2036 77.6754 17.0257 78.0432 18.4707H78.0422C78.4093 19.8861 78.9554 20.9558 79.6682 21.6963L79.9534 21.959C80.6247 22.5454 81.342 22.9603 82.1047 23.208C82.9873 23.4676 84.088 23.5996 85.4094 23.5996C88.4216 23.5996 90.4502 22.82 91.5686 21.3203C91.6023 21.2751 91.6541 21.2466 91.7102 21.2412C91.7662 21.2359 91.8219 21.2541 91.8635 21.292L92.7434 22.0918C92.8213 22.1626 92.8312 22.2818 92.7659 22.3643C91.2473 24.2693 88.7769 25.2001 85.4094 25.2002C82.0404 25.2002 79.5816 24.2421 78.0901 22.2812C76.6099 20.3351 75.8889 17.2271 75.8889 13C75.8889 8.77287 76.6099 5.66491 78.0901 3.71875C79.5816 1.75789 82.0404 0.799805 85.4094 0.799805Z" fill="#456FB1" stroke="#456FB1" stroke-width="0.4" stroke-linejoin="round"/>
<path d="M60.3206 1.19995C60.4309 1.20006 60.5208 1.28975 60.5208 1.40015V23.2H72.4807C72.591 23.2001 72.6799 23.2898 72.6799 23.4001V24.6003C72.6798 24.7106 72.5909 24.8004 72.4807 24.8005H59.1204C59.01 24.8005 58.9203 24.7107 58.9202 24.6003V1.40015C58.9202 1.28969 59.0099 1.19995 59.1204 1.19995H60.3206Z" fill="#456FB1" stroke="#456FB1" stroke-width="0.4" stroke-linejoin="round"/>
<path d="M51.5315 1.19995C51.6419 1.20006 51.7317 1.28975 51.7317 1.40015V24.6003C51.7316 24.7106 51.6418 24.8004 51.5315 24.8005H50.3313C50.2209 24.8005 50.1312 24.7107 50.1311 24.6003V1.40015C50.1311 1.28969 50.2208 1.19995 50.3313 1.19995H51.5315Z" fill="#456FB1" stroke="#456FB1" stroke-width="0.4" stroke-linejoin="round"/>
<path d="M35.7678 0.799805C35.8481 0.799805 35.9211 0.847935 35.9524 0.921875L45.9524 24.5215C45.9785 24.5831 45.9716 24.6541 45.9348 24.71C45.8978 24.7659 45.8349 24.7998 45.7678 24.7998H30.928C30.8175 24.7998 30.7278 24.7101 30.7278 24.5996V23.4004C30.7278 23.2899 30.8175 23.2002 30.928 23.2002H43.6653L35.7668 4.59082L27.2317 24.6787C27.2002 24.7522 27.128 24.7997 27.0481 24.7998H25.7678C25.7007 24.7998 25.6379 24.7659 25.6008 24.71C25.564 24.6541 25.5571 24.5831 25.5833 24.5215L35.5833 0.921875L35.6145 0.87207C35.6519 0.827283 35.7075 0.799805 35.7678 0.799805Z" fill="#456FB1" stroke="#456FB1" stroke-width="0.4" stroke-linejoin="round"/>
<path d="M2.00024 1.19995L2.03931 1.20386C2.07774 1.21154 2.11372 1.23042 2.14185 1.25854L11.0002 10.1169L19.8586 1.25854L19.8889 1.23413C19.9216 1.21226 19.9603 1.19995 20.0002 1.19995H21.2004C21.3107 1.20016 21.3997 1.28982 21.3997 1.40015V24.6003C21.3996 24.6534 21.3786 24.7045 21.3411 24.7419C21.3035 24.7793 21.2525 24.8007 21.1995 24.8005L4.55981 24.7605C4.4496 24.7602 4.3597 24.6705 4.35962 24.5603V23.4001C4.35962 23.2898 4.44947 23.2001 4.55981 23.2H19.8V3.56323L11.1418 12.2214C11.1044 12.2589 11.0532 12.28 11.0002 12.28C10.9472 12.28 10.8961 12.2589 10.8586 12.2214L2.20044 3.56323V24.6003C2.20039 24.6545 2.17783 24.7063 2.13892 24.7439C2.09997 24.7815 2.04753 24.8014 1.99341 24.7996L0.793213 24.7605C0.685535 24.7568 0.599936 24.668 0.599854 24.5603V1.40015C0.599854 1.28969 0.689592 1.19995 0.800049 1.19995H2.00024Z" fill="#456FB1" stroke="#456FB1" stroke-width="0.4" stroke-linejoin="round"/>
</svg>
