<svg width="11" height="12" viewBox="0 0 11 12" fill="none" xmlns="http://www.w3.org/2000/svg">
<path d="M10.2141 3.08563C10.2141 3.0337 10.2033 2.98223 10.1834 2.93448C10.1634 2.8866 10.1342 2.84284 10.0974 2.80635L10.0959 2.80481L8.70436 1.40612L8.70206 1.40382C8.66563 1.36658 8.62209 1.33668 8.57388 1.31635C8.52561 1.29605 8.47349 1.28566 8.42114 1.28566C8.36896 1.28568 8.31731 1.29616 8.26918 1.31635C8.22086 1.33669 8.17673 1.3665 8.14023 1.40382L8.1364 1.40765L1.73301 7.77658L0.959348 10.5402L3.72241 9.76683L10.0959 3.36644L10.0974 3.36414C10.1341 3.3277 10.1634 3.28453 10.1834 3.23678C10.2033 3.18906 10.214 3.13752 10.2141 3.08563ZM11 3.08563C11 3.24109 10.9694 3.39538 10.9094 3.53907C10.8499 3.68176 10.7618 3.81051 10.6523 3.91963L4.20825 10.3944C4.16042 10.4425 4.10083 10.4774 4.03555 10.4957L0.498838 11.4855C0.362165 11.5237 0.215453 11.4853 0.11508 11.385C0.0147219 11.2846 -0.0236884 11.138 0.0145355 11.0013L1.00463 7.46585L1.02152 7.41828C1.04129 7.37169 1.06984 7.32914 1.10594 7.29322L7.58225 0.850633C7.69127 0.740199 7.82091 0.652191 7.9637 0.59207C8.10843 0.5312 8.26416 0.500016 8.42114 0.5C8.57817 0.5 8.73383 0.531189 8.87858 0.59207L8.9845 0.643475C9.0864 0.698894 9.17984 0.769092 9.26158 0.852167L10.6508 2.24856C10.7612 2.3581 10.8496 2.48865 10.9094 2.63218C10.9693 2.77588 11 2.93016 11 3.08563Z" fill="black"/>
</svg>
