<svg width="10" height="10" viewBox="0 0 10 10" fill="none" xmlns="http://www.w3.org/2000/svg">
<path d="M6.09705 4.0001C6.09705 3.39424 5.60594 2.903 5.0001 2.90295C4.39421 2.90295 3.90295 3.39421 3.90295 4.0001C3.903 4.60594 4.39424 5.09705 5.0001 5.09705C5.60591 5.097 6.097 4.60591 6.09705 4.0001ZM7 4.0001C6.99995 5.1046 6.1046 5.99995 5.0001 6C3.89555 6 3.00005 5.10463 3 4.0001C3 2.89552 3.89552 2 5.0001 2C6.10463 2.00005 7 2.89555 7 4.0001Z" fill="#121212"/>
<path d="M5.00009 6C5.58982 6.00002 6.16969 6.19679 6.68385 6.57117C7.19798 6.94557 7.62927 7.48498 7.93608 8.13778C8.06176 8.4052 7.99639 8.75422 7.79009 8.91714C7.58378 9.08006 7.31453 8.99532 7.18884 8.7279C6.96009 8.24119 6.63869 7.83884 6.25536 7.55971C5.87204 7.2806 5.43975 7.134 5.00009 7.13398C4.56041 7.13398 4.12798 7.28058 3.74463 7.55971C3.36131 7.83885 3.0399 8.24119 2.81115 8.7279C2.68547 8.99532 2.41621 9.08006 2.20991 8.91714C2.00362 8.75422 1.93823 8.40519 2.06391 8.13778C2.37073 7.48498 2.80202 6.94557 3.31615 6.57117C3.83033 6.19677 4.41034 6 5.00009 6Z" fill="#121212"/>
<path d="M8.99171 5.00011C8.99171 2.79556 7.20464 1.00834 5.00011 1.00829C2.79554 1.00829 1.00829 2.79554 1.00829 5.00011C1.00834 7.20464 2.79556 8.99171 5.00011 8.99171C7.20462 8.99166 8.99166 7.20462 8.99171 5.00011ZM10 5.00011C9.99996 7.76148 7.76148 9.99996 5.00011 10C2.2387 10 4.52404e-05 7.76151 0 5.00011C0 2.23867 2.23867 0 5.00011 0C7.76151 4.52432e-05 10 2.2387 10 5.00011Z" fill="#121212"/>
</svg>
