<svg width="11" height="12" viewBox="0 0 11 12" fill="none" xmlns="http://www.w3.org/2000/svg">
<path d="M4.41087 4.5C4.58514 4.50103 4.75423 4.5559 4.89197 4.65649C5.01257 4.74459 5.10337 4.86344 5.15391 4.99819L5.17314 5.0566L5.17447 5.06222L5.41519 5.9799H10.2133C10.3215 5.97974 10.4288 6.00045 10.528 6.04112C10.6276 6.08195 10.7171 6.14188 10.7909 6.21697C10.8647 6.29205 10.9211 6.38078 10.9567 6.47747C10.9923 6.57417 11.0062 6.67687 10.9975 6.77888L10.6911 10.478V10.4786C10.6674 10.7573 10.5329 11.0174 10.3145 11.2067C10.0963 11.3958 9.81047 11.5003 9.51405 11.4997L1.50201 11.5V11.4997C1.20963 11.5006 0.927265 11.3994 0.709888 11.2151C0.49205 11.0305 0.354936 10.7758 0.3256 10.5011C0.325054 10.496 0.324592 10.4906 0.324273 10.4855L0.00231943 5.30585L0.00331414 5.30554C-0.00587239 5.20869 0.00385373 5.1111 0.0348132 5.01818C0.0682301 4.91794 0.124007 4.82546 0.198277 4.74707C0.272577 4.66867 0.363877 4.60602 0.465853 4.56341C0.566992 4.52116 0.676532 4.49994 0.787144 4.50031V4.5H4.41087ZM0.786481 5.26244L1.10744 10.4305C1.11799 10.5208 1.16373 10.6043 1.23543 10.6651C1.30803 10.7266 1.40236 10.7605 1.50002 10.7601H9.51538C9.61432 10.7603 9.70981 10.7254 9.78262 10.6623C9.85518 10.5994 9.89981 10.5131 9.90795 10.4205L10.2143 6.72047L10.2147 6.71985H5.10749C4.92685 6.71985 4.76949 6.60364 4.72619 6.43842L4.41319 5.24463C4.4127 5.24342 4.41193 5.24234 4.41087 5.24151L4.40589 5.23995H0.784492C0.785447 5.24742 0.786011 5.25493 0.786481 5.26244Z" fill="#000001"/>
<path d="M10.1429 4.13653V1.22755H2.85745V2.68204C2.85738 2.88282 2.66537 3.04551 2.42873 3.04551C2.19208 3.04551 2.00007 2.88282 2 2.68204V1.22755C2 1.03467 2.09035 0.849435 2.25109 0.713047C2.41183 0.576659 2.63013 0.5 2.85745 0.5H10.1429C10.3702 0.500038 10.5882 0.576698 10.7489 0.713047C10.9097 0.849436 11 1.03467 11 1.22755V4.13653C11 4.33733 10.8079 4.5 10.5713 4.5C10.3346 4.49999 10.143 4.33732 10.1429 4.13653Z" fill="#000001"/>
<path d="M8.62488 2.5C8.83197 2.5 9 2.72397 9 3C9 3.27603 8.83197 3.5 8.62488 3.5H6.37512C6.16803 3.5 6 3.27603 6 3C6 2.72397 6.16803 2.5 6.37512 2.5H8.62488Z" fill="#000001"/>
</svg>
