<svg width="139" height="30" viewBox="0 0 139 30" fill="none" xmlns="http://www.w3.org/2000/svg">
<path d="M125.601 0.589308C129.454 0.589358 132.378 1.25769 134.358 2.60986C136.372 3.96389 137.384 5.81995 137.384 8.16858C137.384 9.69255 136.87 11.0521 135.845 12.2429L135.844 12.2439C134.847 13.3702 133.659 14.2434 132.284 14.866L138.89 29.0011C138.905 29.0321 138.903 29.0689 138.884 29.0978C138.866 29.1264 138.834 29.1436 138.8 29.1437H137.187C137.148 29.1437 137.113 29.1212 137.096 29.0861L130.252 14.4197C130.229 14.3706 130.25 14.3121 130.298 14.2879C130.366 14.2542 130.644 14.1226 131.131 13.8953C131.645 13.6385 132 13.4605 132.197 13.3621C132.393 13.231 132.72 13.0208 133.173 12.7292C133.625 12.4385 133.959 12.1666 134.178 11.9157C134.404 11.6246 134.647 11.3009 134.906 10.945L134.907 10.944C135.193 10.5625 135.399 10.1498 135.526 9.70573C135.653 9.22646 135.718 8.71417 135.718 8.16858C135.718 7.15851 135.477 6.28585 135 5.54645C134.523 4.8067 133.805 4.194 132.84 3.71145C130.902 2.74258 128.491 2.25541 125.601 2.25536H121.789V29.0441C121.789 29.0991 121.745 29.1436 121.69 29.1437H120.223C120.168 29.1437 120.123 29.0991 120.123 29.0441V0.68892C120.123 0.63369 120.167 0.589308 120.223 0.589308H125.601Z" fill="#1C2F4E" stroke="#1C2F4E" stroke-width="0.2" stroke-linejoin="round"/>
<path d="M103.608 0.100405C108.356 0.100423 111.608 1.65776 113.326 4.7968C113.349 4.83864 113.339 4.89024 113.303 4.92083L101.326 14.9425C101.308 14.9576 101.285 14.966 101.262 14.966H98.9637C98.9218 14.9659 98.8843 14.9399 98.8699 14.9005C98.8556 14.861 98.8679 14.8162 98.9002 14.7892L111.193 4.53605C109.776 2.70005 107.26 1.76647 103.608 1.76646C101.985 1.76646 100.627 1.94538 99.5321 2.29967L99.5301 2.30065C98.4405 2.62111 97.428 3.24653 96.4929 4.18155C95.6534 5.02104 95.005 6.24603 94.5534 7.86425L94.4655 8.19336C94.0121 9.94218 93.7839 12.166 93.7839 14.8664C93.7839 17.5662 94.0121 19.8057 94.4655 21.5872L94.5534 21.9105C95.0044 23.5003 95.6515 24.7273 96.491 25.5981C97.4256 26.5005 98.4385 27.1275 99.5291 27.4809C100.625 27.8033 101.985 27.9663 103.608 27.9663C107.31 27.9663 109.845 27.0076 111.252 25.1215C111.269 25.0989 111.295 25.0851 111.323 25.0824C111.351 25.0798 111.379 25.0889 111.4 25.1078L112.476 26.0854C112.514 26.1209 112.519 26.181 112.486 26.2221C110.668 28.5034 107.699 29.6323 103.608 29.6323C99.5167 29.6323 96.5638 28.4701 94.778 26.1225C92.998 23.7821 92.1178 20.0227 92.1178 14.8664C92.1178 9.70998 92.998 5.95068 94.778 3.61025C96.5637 1.2626 99.5166 0.100405 103.608 0.100405Z" fill="#1C2F4E" stroke="#1C2F4E" stroke-width="0.2" stroke-linejoin="round"/>
<path d="M72.9453 0.589308C73.0004 0.589418 73.0449 0.633758 73.0449 0.68892V27.4766H87.8069C87.8621 27.4767 87.9065 27.522 87.9065 27.5772V29.0441C87.9064 29.0991 87.862 29.1436 87.8069 29.1437H71.4784C71.4233 29.1437 71.379 29.0991 71.3788 29.0441V0.68892C71.3788 0.63369 71.4232 0.589308 71.4784 0.589308H72.9453Z" fill="#1C2F4E" stroke="#1C2F4E" stroke-width="0.2" stroke-linejoin="round"/>
<path d="M62.2033 0.589308C62.2585 0.589418 62.3029 0.633758 62.3029 0.68892V29.0441C62.3027 29.0991 62.2583 29.1436 62.2033 29.1437H60.7365C60.6814 29.1437 60.6371 29.0991 60.6369 29.0441V0.68892C60.6369 0.63369 60.6813 0.589308 60.7365 0.589308H62.2033Z" fill="#1C2F4E" stroke="#1C2F4E" stroke-width="0.2" stroke-linejoin="round"/>
<path d="M42.9373 0.100405C42.9773 0.100432 43.0134 0.124069 43.0291 0.160953L55.251 29.0044C55.2641 29.0353 55.2608 29.0711 55.2422 29.0991C55.2237 29.1269 55.1926 29.144 55.1592 29.144H37.0221C36.9669 29.144 36.9215 29.0987 36.9215 29.0434V27.5766C36.9217 27.5216 36.967 27.477 37.0221 27.477H52.8086L42.9363 4.21964L32.3716 29.0825C32.3559 29.1194 32.3199 29.144 32.2798 29.144H30.7153C30.6819 29.144 30.6508 29.1269 30.6323 29.0991C30.6138 29.0711 30.6104 29.0353 30.6235 29.0044L42.8455 0.160953L42.8601 0.135562C42.8788 0.113216 42.9071 0.100405 42.9373 0.100405Z" fill="#1C2F4E" stroke="#1C2F4E" stroke-width="0.2" stroke-linejoin="round"/>
<path d="M1.66679 0.589308L1.70487 0.596144C1.71694 0.601123 1.72769 0.609198 1.7371 0.618605L12.6661 11.5466L23.595 0.618605C23.6138 0.599851 23.6398 0.589308 23.6663 0.589308H25.1322C25.1874 0.589308 25.2328 0.63369 25.2328 0.68892V29.0441C25.2327 29.0704 25.2221 29.0957 25.2035 29.1144C25.1847 29.1331 25.1587 29.1437 25.1322 29.1437L4.79479 29.0948C4.73995 29.0945 4.6954 29.0501 4.69518 28.9952V27.5772C4.69518 27.522 4.74053 27.4766 4.79576 27.4766H23.5657V2.98389L12.7374 13.8123C12.7186 13.831 12.6926 13.8416 12.6661 13.8416C12.6396 13.8415 12.6144 13.831 12.5957 13.8123L1.7664 2.98292V29.0441C1.7663 29.071 1.75544 29.0966 1.73612 29.1153C1.71664 29.1342 1.68996 29.1446 1.66288 29.1437L0.197026 29.0948C0.143262 29.093 0.100563 29.049 0.100344 28.9952V0.68892C0.100344 0.63369 0.144726 0.589308 0.199956 0.589308H1.66679Z" fill="#1C2F4E" stroke="#1C2F4E" stroke-width="0.2" stroke-linejoin="round"/>
</svg>
