<svg width="115" height="25" viewBox="0 0 115 25" fill="none" xmlns="http://www.w3.org/2000/svg">
<path d="M103.722 0.603993C106.907 0.604039 109.344 1.15636 111.003 2.2895C112.694 3.4263 113.55 4.99202 113.55 6.96841C113.55 8.25352 113.115 9.40045 112.252 10.4024L112.251 10.4043C111.445 11.3148 110.488 12.0259 109.386 12.5422L114.779 24.0821C114.808 24.1445 114.804 24.2178 114.767 24.2758C114.73 24.3339 114.666 24.3692 114.597 24.3693H113.268C113.19 24.3692 113.119 24.3231 113.086 24.2522L107.446 12.1685C107.4 12.0698 107.441 11.9528 107.539 11.904C107.595 11.8757 107.825 11.767 108.223 11.5814L108.226 11.5804L108.229 11.5785L108.231 11.5775L108.234 11.5765L108.236 11.5755L108.239 11.5736L108.241 11.5726L108.244 11.5716L108.246 11.5696L108.249 11.5686L108.251 11.5677L108.254 11.5667L108.256 11.5647L108.258 11.5637L108.26 11.5627L108.263 11.5618L108.266 11.5598L108.268 11.5588L108.271 11.5578L108.273 11.5568L108.276 11.5549L108.278 11.5539L108.281 11.5529L108.283 11.5519L108.285 11.55L108.288 11.549L108.29 11.548L108.293 11.547L108.295 11.545L108.298 11.5441L108.3 11.5431L108.303 11.5421L108.305 11.5411L108.308 11.5391L108.31 11.5382L108.313 11.5372L108.315 11.5362L108.316 11.5342L108.319 11.5332L108.321 11.5323L108.324 11.5313L108.326 11.5303L108.329 11.5283L108.333 11.5264L108.336 11.5254L108.338 11.5244L108.341 11.5224L108.343 11.5214L108.346 11.5205L108.348 11.5195L108.35 11.5175L108.353 11.5165L108.355 11.5155L108.358 11.5146L108.362 11.5126L108.365 11.5106L108.369 11.5087L108.372 11.5077L108.374 11.5067L108.376 11.5047L108.38 11.5028L108.383 11.5018L108.387 11.4998L108.39 11.4978L108.394 11.4959L108.397 11.4949L108.399 11.4939L108.401 11.4919L108.404 11.491L108.408 11.489L108.411 11.488L108.415 11.486L108.418 11.4841L108.424 11.4811L108.427 11.4801L108.429 11.4792L108.431 11.4772L108.434 11.4762L108.439 11.4733L108.442 11.4723L108.446 11.4703L108.449 11.4683L108.455 11.4654L108.458 11.4644L108.464 11.4615L108.467 11.4595L108.475 11.4556L108.478 11.4546L108.482 11.4526L108.484 11.4506L108.487 11.4497L108.494 11.4457L108.497 11.4447L108.503 11.4418L108.505 11.4398L108.508 11.4388L108.518 11.4339L108.521 11.4329L108.531 11.428L108.533 11.4261L108.536 11.4251L108.55 11.4182L108.552 11.4172L108.566 11.4103L108.568 11.4084L108.57 11.4074L108.573 11.4064L108.607 11.3897L108.61 11.3887L108.643 11.372L108.644 11.371L108.677 11.3543L108.678 11.3533H108.68L108.696 11.3454L108.697 11.3444L108.709 11.3385L108.71 11.3375L108.712 11.3366H108.714L108.722 11.3326L108.723 11.3316L108.732 11.3267L108.733 11.3257H108.735L108.741 11.3228L108.742 11.3218L108.75 11.3179L108.751 11.3169H108.753L108.759 11.3139L108.76 11.313L108.766 11.31L108.767 11.309H108.769L108.773 11.3071L108.774 11.3061L108.78 11.3031L108.781 11.3021H108.783L108.787 11.3002L108.788 11.2992L108.791 11.2972L108.792 11.2962H108.794L108.798 11.2943L108.799 11.2933L108.803 11.2913L108.804 11.2903H108.806L108.808 11.2894L108.809 11.2884L108.813 11.2864L108.814 11.2854H108.816L108.818 11.2844L108.819 11.2835L108.823 11.2815L108.824 11.2805H108.826L108.828 11.2795L108.829 11.2785L108.833 11.2766H108.834L108.838 11.2746L108.839 11.2736L108.841 11.2726L108.842 11.2717H108.844L108.846 11.2707L108.847 11.2697L108.85 11.2677H108.851L108.853 11.2667L108.854 11.2658L108.856 11.2648L108.857 11.2638H108.859L108.861 11.2628L108.862 11.2618L108.864 11.2608L108.865 11.2599H108.867L108.869 11.2589L108.87 11.2579L108.872 11.2569H108.873L108.875 11.2559L108.876 11.2549L108.878 11.254L108.879 11.253H108.881L108.882 11.252L108.886 11.25H108.887L108.889 11.249L108.89 11.2481L108.892 11.2471H108.893L108.895 11.2461L108.896 11.2451L108.898 11.2441H108.899L108.901 11.2431L108.902 11.2422L108.904 11.2412H108.905L108.907 11.2402L108.907 11.2392L108.909 11.2382H108.91L108.912 11.2372L108.913 11.2363L108.915 11.2353H108.916L108.918 11.2343L108.92 11.2323H108.922L108.923 11.2313L108.925 11.2304H108.926L108.928 11.2294L108.929 11.2284L108.931 11.2274H108.932L108.933 11.2264L108.935 11.2254H108.936L108.938 11.2245L108.939 11.2235L108.941 11.2225H108.942L108.943 11.2215L108.945 11.2205H108.946L108.948 11.2195L108.949 11.2186H108.95L108.952 11.2176L108.954 11.2156H108.956L108.957 11.2146L108.959 11.2136H108.96L108.961 11.2127L108.963 11.2117H108.964L108.965 11.2107L108.966 11.2097H108.967L108.969 11.2087L108.97 11.2077H108.971L108.973 11.2068L108.974 11.2058H108.975L108.977 11.2048L108.978 11.2038H108.979L108.981 11.2028L108.982 11.2018H108.983L108.984 11.2009L108.986 11.1999H108.987L108.988 11.1989L108.99 11.1979H108.991L108.992 11.1969L108.994 11.1959H108.995L108.997 11.194H108.999L109 11.193H109.001L109.002 11.192L109.004 11.191H109.005L109.006 11.19L109.008 11.1891H109.009L109.01 11.1881H109.011L109.013 11.1871L109.014 11.1861H109.015L109.017 11.1841H109.019L109.02 11.1832H109.021L109.022 11.1822L109.024 11.1812H109.025L109.025 11.1802H109.026L109.027 11.1792L109.029 11.1782H109.03L109.031 11.1773H109.032L109.033 11.1763L109.035 11.1753H109.036L109.037 11.1743H109.038L109.04 11.1723H109.042L109.043 11.1714H109.044L109.045 11.1704H109.046L109.048 11.1684H109.05L109.051 11.1674H109.052L109.053 11.1664H109.054L109.056 11.1645H109.058L109.059 11.1635H109.06L109.061 11.1625H109.062L109.063 11.1615H109.064L109.066 11.1596H109.067L109.069 11.1586H109.07L109.071 11.1576H109.072L109.073 11.1566H109.074L109.075 11.1556H109.076L109.077 11.1546H109.078L109.08 11.1527H109.081L109.082 11.1517H109.084L109.084 11.1507H109.085L109.086 11.1497H109.087L109.088 11.1487H109.089L109.09 11.1478H109.091L109.092 11.1468H109.093L109.094 11.1458H109.095L109.096 11.1448H109.097L109.098 11.1438H109.099L109.1 11.1428C109.264 11.0339 109.53 10.8614 109.897 10.6256C110.264 10.3892 110.529 10.1724 110.699 9.97754C110.884 9.74019 111.081 9.4762 111.292 9.18592L111.294 9.18395C111.522 8.88078 111.684 8.55314 111.785 8.20156C111.887 7.81829 111.938 7.4076 111.938 6.96841C111.938 6.15576 111.746 5.45929 111.367 4.87185C110.987 4.28375 110.413 3.79273 109.633 3.40268C108.058 2.61493 106.09 2.21579 103.722 2.21575H100.701V24.1677C100.701 24.2787 100.611 24.3691 100.5 24.3693H99.291C99.1799 24.3693 99.0896 24.2788 99.0895 24.1677V0.805585C99.0895 0.694358 99.1798 0.603993 99.291 0.603993H103.722Z" fill="#456FB1" stroke="#456FB1" stroke-width="0.4" stroke-linejoin="round"/>
<path d="M85.6024 0.2012C89.5408 0.201269 92.2698 1.49557 93.7133 4.13274C93.7595 4.21705 93.7398 4.32182 93.6661 4.3835L83.798 12.6409C83.7618 12.6712 83.7162 12.688 83.6691 12.6881H81.7751C81.6906 12.6879 81.6152 12.6348 81.5863 12.5554C81.5575 12.4758 81.5815 12.3865 81.6463 12.3321L91.6836 3.95967C90.5354 2.54825 88.5328 1.81301 85.6024 1.81295C84.2731 1.81295 83.1673 1.95875 82.2806 2.24564L82.2757 2.24761C81.3998 2.50523 80.5818 3.00923 79.8231 3.76791C79.1058 4.48541 78.5554 5.56209 78.1848 7.01797L78.1839 7.01895C77.8138 8.44655 77.6273 10.2675 77.6273 12.4865C77.6273 14.7055 77.8145 16.5403 78.1848 17.9954H78.1839C78.5535 19.4206 79.1033 20.4978 79.8212 21.2435L80.1083 21.508C80.7844 22.0985 81.5067 22.5163 82.2747 22.7658C83.1634 23.0271 84.2718 23.1601 85.6024 23.1601C88.6356 23.16 90.6784 22.3751 91.8046 20.8649C91.8386 20.8194 91.8906 20.7907 91.9472 20.7852C92.0036 20.7799 92.0596 20.7983 92.1016 20.8364L92.9876 21.6418C93.066 21.7131 93.076 21.8331 93.0102 21.9161C91.4811 23.8345 88.9934 24.7718 85.6024 24.7718C82.2099 24.7718 79.7339 23.8071 78.232 21.8325C76.7415 19.8728 76.0155 16.7432 76.0155 12.4865C76.0155 8.2299 76.7415 5.10025 78.232 3.14051C79.7339 1.16597 82.2099 0.2012 85.6024 0.2012Z" fill="#456FB1" stroke="#456FB1" stroke-width="0.4" stroke-linejoin="round"/>
<path d="M60.3385 0.603993C60.4497 0.604099 60.5401 0.694423 60.5401 0.805585V22.7575H72.5835C72.6946 22.7577 72.7841 22.848 72.7841 22.9591V24.1677C72.784 24.2787 72.6945 24.3691 72.5835 24.3693H59.1299C59.0188 24.3693 58.9285 24.2788 58.9284 24.1677V0.805585C58.9284 0.694358 59.0187 0.603993 59.1299 0.603993H60.3385Z" fill="#456FB1" stroke="#456FB1" stroke-width="0.4" stroke-linejoin="round"/>
<path d="M51.4881 0.603993C51.5993 0.604099 51.6897 0.694423 51.6897 0.805585V24.1677C51.6896 24.2787 51.5992 24.3692 51.4881 24.3693H50.2796C50.1684 24.3693 50.0781 24.2788 50.078 24.1677V0.805585C50.078 0.694358 50.1683 0.603993 50.2796 0.603993H51.4881Z" fill="#456FB1" stroke="#456FB1" stroke-width="0.4" stroke-linejoin="round"/>
<path d="M35.6145 0.2012C35.6953 0.2012 35.7688 0.249667 35.8003 0.324122L45.8701 24.0884C45.8964 24.1504 45.8894 24.2219 45.8524 24.2782C45.8151 24.3345 45.7518 24.3687 45.6842 24.3687H30.7408C30.6296 24.3687 30.5393 24.2783 30.5393 24.1671V22.9595C30.5393 22.8483 30.6296 22.7579 30.7408 22.7579H43.567L35.6135 4.01867L27.0188 24.2467C26.9871 24.3207 26.9144 24.3686 26.8339 24.3687H25.5447C25.4771 24.3687 25.4138 24.3345 25.3765 24.2782C25.3395 24.2219 25.3325 24.1504 25.3588 24.0884L35.4286 0.324122L35.4601 0.27397C35.4977 0.228871 35.5537 0.201201 35.6145 0.2012Z" fill="#456FB1" stroke="#456FB1" stroke-width="0.4" stroke-linejoin="round"/>
<path d="M1.61126 0.603993L1.6506 0.607927C1.6893 0.615668 1.72553 0.634675 1.75385 0.662996L10.6741 9.58321L19.5943 0.662996L19.6248 0.638411C19.6577 0.616383 19.6967 0.603993 19.7369 0.603993H20.9454C21.0565 0.604204 21.146 0.694488 21.146 0.805585V24.1677C21.146 24.2211 21.1249 24.2725 21.087 24.3103C21.0492 24.3479 20.9978 24.3694 20.9444 24.3693L4.18869 24.3289C4.07771 24.3287 3.98719 24.2383 3.9871 24.1273V22.9591C3.9871 22.8479 4.07757 22.7576 4.18869 22.7575H19.5353V2.98376L10.8167 11.7024C10.7789 11.7401 10.7274 11.7613 10.6741 11.7614C10.6206 11.7614 10.5692 11.7402 10.5315 11.7024L1.81285 2.98376V24.1677C1.8128 24.2222 1.79008 24.2743 1.7509 24.3122C1.71168 24.3501 1.65888 24.3701 1.60438 24.3683L0.395809 24.3289C0.28738 24.3252 0.201184 24.2358 0.201101 24.1273V0.805585C0.201101 0.694358 0.291465 0.603993 0.402693 0.603993H1.61126Z" fill="#456FB1" stroke="#456FB1" stroke-width="0.4" stroke-linejoin="round"/>
</svg>
