<svg width="15" height="15" viewBox="0 0 15 15" fill="none" xmlns="http://www.w3.org/2000/svg">
<path d="M5.20348 2.32288C6.20972 1.82666 7.34075 1.64015 8.45309 1.78659C9.56537 1.93306 10.6094 2.4059 11.4528 3.14561C12.2962 3.88522 12.9013 4.85834 13.1917 5.9418L13.2291 6.08757C13.5967 7.5975 13.3881 9.19242 12.6409 10.5591C12.4843 10.8457 12.1248 10.951 11.8383 10.7944C11.5519 10.6377 11.4466 10.2785 11.6031 9.99205C12.2284 8.84848 12.3884 7.5077 12.0497 6.24917L12.0496 6.24853C11.8197 5.39075 11.3407 4.62024 10.673 4.03472C10.0054 3.44921 9.17899 3.07502 8.29856 2.9591C7.41812 2.84319 6.52293 2.99077 5.72647 3.38354C4.93005 3.77631 4.26789 4.39649 3.82389 5.16553C3.37988 5.93457 3.17387 6.8181 3.23193 7.70421C3.29001 8.59034 3.6098 9.43939 4.15041 10.1439C4.69101 10.8484 5.42826 11.377 6.26916 11.6625C7.11007 11.9479 8.01686 11.9775 8.87464 11.7477C9.19008 11.6632 9.51433 11.8504 9.59886 12.1658C9.68333 12.4812 9.49614 12.8055 9.18073 12.89C8.09702 13.1804 6.95146 13.143 5.88906 12.7823C4.82672 12.4217 3.89523 11.754 3.21225 10.864C2.52925 9.9739 2.12526 8.90115 2.05188 7.78161C1.9785 6.66207 2.23883 5.54589 2.7998 4.57427C3.36076 3.60264 4.19724 2.8191 5.20348 2.32288Z" fill="#1C2F4E"/>
<path d="M11.0528 8.34955C11.3383 8.19107 11.6982 8.29385 11.8567 8.57928L12.352 9.47143L13.2442 8.97616C13.5297 8.81765 13.8896 8.92068 14.0481 9.20621C14.2066 9.49174 14.1036 9.85168 13.8181 10.0102L12.4091 10.7925C12.1236 10.951 11.7637 10.848 11.6051 10.5625L10.8231 9.15344C10.6646 8.86796 10.7674 8.5081 11.0528 8.34955Z" fill="#1C2F4E"/>
</svg>
