<svg width="10" height="12" viewBox="0 0 10 12" fill="none" xmlns="http://www.w3.org/2000/svg">
<path d="M0 10.7145V1.28586C5.57122e-06 0.944873 0.131762 0.617751 0.366175 0.376639C0.600589 0.135528 0.918622 5.7304e-06 1.25013 0H5.41665L5.45781 0.00217083C5.55322 0.0118769 5.64302 0.0552194 5.71142 0.125546L9.87794 4.41149C9.95605 4.49184 9.99997 4.6007 10 4.71432V10.7145C9.99997 11.0554 9.86821 11.3823 9.63382 11.6234C9.39944 11.8644 9.08169 12 8.75022 12H1.25013C0.918622 12 0.600588 11.8645 0.366175 11.6234C0.131866 11.3823 2.62796e-05 11.0554 0 10.7145ZM0.833656 10.7145C0.833682 10.8281 0.877332 10.937 0.955362 11.0173C1.0335 11.0977 1.13963 11.1429 1.25013 11.1429H8.75022C8.86067 11.1428 8.96653 11.0977 9.04464 11.0173C9.12274 10.937 9.16667 10.8281 9.1667 10.7145V4.89197L5.24429 0.857479H1.25013C1.13963 0.857485 1.0335 0.902296 0.955362 0.982663C0.877228 1.06303 0.833661 1.1722 0.833656 1.28586V10.7145Z" fill="#000001"/>
<path d="M5 0.479459C5 0.214766 5.18654 0 5.41665 0C5.64676 0 5.83363 0.214766 5.83363 0.479459V4.79297H9.58319C9.81326 4.79297 9.99994 5.00738 10 5.27202C10 5.53671 9.8133 5.75148 9.58319 5.75148H5.41681C5.18671 5.75148 5 5.53671 5 5.27202V0.479459Z" fill="#000001"/>
</svg>
