<svg width="11" height="12" viewBox="0 0 11 12" fill="none" xmlns="http://www.w3.org/2000/svg">
<g clip-path="url(#clip0_91_1398)">
<path d="M10.2142 2.85718C10.4312 2.85718 10.6071 3.03307 10.6071 3.25003C10.6071 3.467 10.4312 3.64289 10.2142 3.64289H0.785679C0.56871 3.64289 0.392822 3.467 0.392822 3.25003C0.392822 3.03307 0.56871 2.85718 0.785679 2.85718H10.2142Z" fill="black"/>
<path d="M8.64284 3.64289H2.35713V10.3215C2.35713 10.4257 2.39859 10.5256 2.47222 10.5992L2.53207 10.6483C2.59615 10.691 2.67189 10.7143 2.74998 10.7143H8.24998C8.35414 10.7143 8.45409 10.6729 8.52774 10.5992C8.6014 10.5256 8.64284 10.4256 8.64284 10.3215V3.64289ZM9.42855 10.3215C9.42855 10.634 9.30425 10.9338 9.08327 11.1548C8.86228 11.3757 8.56256 11.5 8.24998 11.5H2.74998C2.43736 11.5 2.13768 11.3757 1.9167 11.1548C1.69565 10.9337 1.57141 10.634 1.57141 10.3215V3.25003C1.57141 3.03307 1.7473 2.85718 1.96427 2.85718H9.0357C9.25267 2.85718 9.42855 3.03307 9.42855 3.25003V10.3215Z" fill="black"/>
<path d="M7.07139 3.25V2.85714C7.07139 2.44037 6.90571 2.04079 6.61101 1.74609C6.31632 1.4514 5.91673 1.28571 5.49997 1.28571C5.0832 1.28571 4.68361 1.4514 4.38892 1.74609C4.09422 2.04079 3.92854 2.44037 3.92854 2.85714V3.25C3.92854 3.46697 3.75265 3.64286 3.53568 3.64286C3.31871 3.64286 3.14282 3.46697 3.14282 3.25V2.85714C3.14282 2.23199 3.39134 1.63262 3.83339 1.19057C4.27544 0.748521 4.87481 0.5 5.49997 0.5C6.12512 0.5 6.72449 0.748521 7.16654 1.19057C7.60859 1.63262 7.85711 2.23199 7.85711 2.85714V3.25C7.85711 3.46697 7.68122 3.64286 7.46425 3.64286C7.24728 3.64286 7.07139 3.46697 7.07139 3.25Z" fill="black"/>
<path d="M3.92859 8.75258V5.60819C3.92859 5.39122 4.10448 5.21533 4.32145 5.21533C4.53842 5.21533 4.7143 5.39122 4.7143 5.60819V8.75258C4.71413 8.9694 4.53831 9.14544 4.32145 9.14544C4.10459 9.14544 3.92876 8.9694 3.92859 8.75258Z" fill="black"/>
<path d="M6.28564 8.75258V5.60819C6.28564 5.39122 6.46153 5.21533 6.6785 5.21533C6.89547 5.21533 7.07136 5.39122 7.07136 5.60819V8.75258C7.07118 8.9694 6.89536 9.14544 6.6785 9.14544C6.46164 9.14544 6.28582 8.9694 6.28564 8.75258Z" fill="black"/>
</g>
<defs>
<clipPath id="clip0_91_1398">
<rect width="11" height="11" fill="white" transform="translate(0 0.5)"/>
</clipPath>
</defs>
</svg>
